<?xml version="1.0" encoding="iso-8859-1"?>
<!-- Uploaded to: SVG Repo, www.svgrepo.com, Generator: SVG Repo Mixer Tools -->
<svg version="1.1" id="Layer_1" xmlns="http://www.w3.org/2000/svg" xmlns:xlink="http://www.w3.org/1999/xlink" 
	 viewBox="0 0 512 512" xml:space="preserve">
<g>
	<polygon style="fill:#E5F4FC;" points="411.455,39.385 439.795,39.385 439.795,0 72.205,0 72.205,39.385 100.545,39.385 
		232.922,256 100.545,472.615 72.205,472.615 72.205,512 439.795,512 439.795,472.615 411.455,472.615 279.078,256 	"/>
	<polygon style="fill:#E5F4FC;" points="411.455,39.385 439.795,39.385 439.795,0 72.205,0 72.205,39.385 100.545,39.385 
		232.922,256 100.545,472.615 72.205,472.615 72.205,512 439.795,512 439.795,472.615 411.455,472.615 279.078,256 	"/>
</g>
<polygon style="fill:#BFE4F8;" points="439.795,39.385 439.795,0 255.344,0 255.344,512 439.795,512 439.795,472.615 
	411.455,472.615 279.078,256 411.455,39.385 "/>
<polygon style="fill:#E5F4FC;" points="146.702,39.385 365.298,39.385 256,218.235 "/>
<g>
	<polygon style="fill:#FFFFFF;" points="365.298,472.615 146.702,472.615 256,293.765 	"/>
	<polygon style="fill:#FFFFFF;" points="331.012,95.488 365.298,39.385 146.702,39.385 180.988,95.488 	"/>
</g>
<polygon style="fill:#FF5023;" points="170.874,78.94 256,218.235 341.126,78.94 "/>
<polygon style="fill:#802812;" points="256,78.94 256,218.235 341.126,78.94 "/>
<g>
	<polygon style="fill:#FF5023;" points="275.692,354.462 275.692,325.989 256,293.765 236.308,325.989 236.308,354.462 	"/>
	<rect x="236.308" y="393.846" style="fill:#FF5023;" width="39.385" height="78.769"/>
</g>
<g>
	<rect x="256" y="393.846" style="fill:#802812;" width="19.692" height="78.769"/>
	<polygon style="fill:#802812;" points="275.692,354.462 275.692,325.989 256,293.765 256,354.462 	"/>
</g>
</svg>